0.06m3min_grf.mot
version=1
nRows=12
nColumns 19
inDegrees=yes
endheader
time	1_ground_force_vx	1_ground_force_vy	1_ground_force_vz	1_ground_force_px	1_ground_force_py	1_ground_force_pz	1_ground_torque_x	1_ground_torque_y	1_ground_torque_z	2_ground_force_vx	2_ground_force_vy	2_ground_force_vz	2_ground_force_px	2_ground_force_py	2_ground_force_pz	2_ground_torque_x	2_ground_torque_y	2_ground_torque_z
            2.467500	            1.758232	          659.290962	          -52.985705	           -0.264149	            0.006044	           -0.364855	            0.000915	            0.343135	           -0.027577	          -14.148373	          813.267092	           75.693165	           -0.202795	            0.005921	           -0.745221	           -0.046718	            2.685423	            0.249940
            2.468000	            1.761322	          651.716915	          -52.330326	           -0.263994	            0.006044	           -0.364819	            0.000797	            0.294821	           -0.023673	          -13.885189	          805.167892	           74.960225	           -0.202562	            0.005922	           -0.745310	           -0.045378	            2.631384	            0.244979
            2.468500	            1.947768	          643.602212	          -51.723582	           -0.263911	            0.006044	           -0.364965	            0.001329	            0.439035	           -0.035283	          -13.478981	          796.334142	           73.802252	           -0.202565	            0.005922	           -0.745225	           -0.044865	            2.650613	            0.245652
            2.469000	            1.858926	          636.749285	          -51.110745	           -0.263885	            0.006043	           -0.364660	            0.001432	            0.490489	           -0.039371	          -13.498849	          788.786075	           73.165275	           -0.202571	            0.005922	           -0.745284	           -0.045912	            2.682803	            0.248848
            2.469500	            1.953295	          629.536317	          -50.591620	           -0.263727	            0.006043	           -0.364598	            0.001388	            0.447419	           -0.035956	          -13.328056	          780.318423	           72.384141	           -0.202333	            0.005922	           -0.745121	           -0.047640	            2.789188	            0.258732
            2.470000	            1.910266	          621.602259	          -50.075245	           -0.263705	            0.006044	           -0.364781	            0.001135	            0.369423	           -0.029760	          -13.254265	          772.771029	           71.653252	           -0.202261	            0.005923	           -0.745131	           -0.047976	            2.797183	            0.259362
            2.470500	            2.417952	          614.748587	          -49.234611	           -0.263504	            0.006043	           -0.364632	            0.001015	            0.258064	           -0.020668	          -12.799652	          763.567326	           71.010163	           -0.202245	            0.005923	           -0.745218	           -0.046753	            2.789037	            0.259375
            2.471000	            2.329012	          608.436548	          -48.619454	           -0.263440	            0.006042	           -0.364399	            0.000471	            0.123054	           -0.009833	          -12.537133	          755.652327	           70.277880	           -0.202323	            0.005922	           -0.745135	           -0.045349	            2.733305	            0.254205
            2.471500	            2.698914	          599.240422	          -48.063655	           -0.263364	            0.006044	           -0.364876	            0.000934	            0.207419	           -0.016637	          -12.368210	          747.736153	           69.780286	           -0.202010	            0.005924	           -0.745278	           -0.045567	            2.754793	            0.257083
            2.472000	            2.380483	          592.568459	          -47.587047	           -0.263245	            0.006044	           -0.364778	            0.000940	            0.234005	           -0.018792	          -11.918394	          739.822668	           68.813291	           -0.202165	            0.005924	           -0.745269	           -0.043918	            2.726186	            0.253571
            2.472500	            2.658256	          585.175230	          -47.069150	           -0.263204	            0.006044	           -0.364744	            0.001494	            0.328818	           -0.026449	          -11.887341	          731.169135	           68.360064	           -0.201969	            0.005923	           -0.744969	           -0.044831	            2.757482	            0.257809
            2.473000	            2.478169	          577.780929	          -46.320832	           -0.263061	            0.006044	           -0.364792	            0.000996	            0.232290	           -0.018623	          -11.387290	          722.334552	           67.530540	           -0.201786	            0.005924	           -0.744948	           -0.044114	            2.798329	            0.261614
